<svg width="24" height="25" viewBox="0 0 24 25" fill="none" xmlns="http://www.w3.org/2000/svg">
<path d="M6.29977 5.77344H21L19 12.7734H7.37671M20 16.7734H8L6 3.77344H3M9 20.7734C9 21.3257 8.55228 21.7734 8 21.7734C7.44772 21.7734 7 21.3257 7 20.7734C7 20.2212 7.44772 19.7734 8 19.7734C8.55228 19.7734 9 20.2212 9 20.7734ZM20 20.7734C20 21.3257 19.5523 21.7734 19 21.7734C18.4477 21.7734 18 21.3257 18 20.7734C18 20.2212 18.4477 19.7734 19 19.7734C19.5523 19.7734 20 20.2212 20 20.7734Z" stroke="white" stroke-width="1.5" stroke-linecap="round" stroke-linejoin="round"/>
</svg>
