<svg width="24" height="25" viewBox="0 0 24 25" fill="none" xmlns="http://www.w3.org/2000/svg">
<path d="M14 6.37344C14 5.81338 14 5.53336 14.109 5.31945C14.2049 5.13128 14.3578 4.9783 14.546 4.88243C14.7599 4.77344 15.0399 4.77344 15.6 4.77344H18.4C18.9601 4.77344 19.2401 4.77344 19.454 4.88243C19.6422 4.9783 19.7951 5.13128 19.891 5.31945C20 5.53336 20 5.81339 20 6.37344V9.17344C20 9.73349 20 10.0135 19.891 10.2274C19.7951 10.4156 19.6422 10.5686 19.454 10.6644C19.2401 10.7734 18.9601 10.7734 18.4 10.7734H15.6C15.0399 10.7734 14.7599 10.7734 14.546 10.6644C14.3578 10.5686 14.2049 10.4156 14.109 10.2274C14 10.0135 14 9.73349 14 9.17344V6.37344Z" stroke="white" stroke-width="1.5" stroke-linecap="round" stroke-linejoin="round"/>
<path d="M4 6.37344C4 5.81338 4 5.53336 4.10899 5.31945C4.20487 5.13128 4.35785 4.9783 4.54601 4.88243C4.75992 4.77344 5.03995 4.77344 5.6 4.77344H8.4C8.96005 4.77344 9.24008 4.77344 9.45399 4.88243C9.64215 4.9783 9.79513 5.13128 9.89101 5.31945C10 5.53336 10 5.81339 10 6.37344V9.17344C10 9.73349 10 10.0135 9.89101 10.2274C9.79513 10.4156 9.64215 10.5686 9.45399 10.6644C9.24008 10.7734 8.96005 10.7734 8.4 10.7734H5.6C5.03995 10.7734 4.75992 10.7734 4.54601 10.6644C4.35785 10.5686 4.20487 10.4156 4.10899 10.2274C4 10.0135 4 9.73349 4 9.17344V6.37344Z" stroke="white" stroke-width="1.5" stroke-linecap="round" stroke-linejoin="round"/>
<path d="M4 16.3734C4 15.8134 4 15.5334 4.10899 15.3194C4.20487 15.1313 4.35785 14.9783 4.54601 14.8824C4.75992 14.7734 5.03995 14.7734 5.6 14.7734H8.4C8.96005 14.7734 9.24008 14.7734 9.45399 14.8824C9.64215 14.9783 9.79513 15.1313 9.89101 15.3194C10 15.5334 10 15.8134 10 16.3734V19.1734C10 19.7335 10 20.0135 9.89101 20.2274C9.79513 20.4156 9.64215 20.5686 9.45399 20.6644C9.24008 20.7734 8.96005 20.7734 8.4 20.7734H5.6C5.03995 20.7734 4.75992 20.7734 4.54601 20.6644C4.35785 20.5686 4.20487 20.4156 4.10899 20.2274C4 20.0135 4 19.7335 4 19.1734V16.3734Z" stroke="white" stroke-width="1.5" stroke-linecap="round" stroke-linejoin="round"/>
<path d="M14 16.3734C14 15.8134 14 15.5334 14.109 15.3194C14.2049 15.1313 14.3578 14.9783 14.546 14.8824C14.7599 14.7734 15.0399 14.7734 15.6 14.7734H18.4C18.9601 14.7734 19.2401 14.7734 19.454 14.8824C19.6422 14.9783 19.7951 15.1313 19.891 15.3194C20 15.5334 20 15.8134 20 16.3734V19.1734C20 19.7335 20 20.0135 19.891 20.2274C19.7951 20.4156 19.6422 20.5686 19.454 20.6644C19.2401 20.7734 18.9601 20.7734 18.4 20.7734H15.6C15.0399 20.7734 14.7599 20.7734 14.546 20.6644C14.3578 20.5686 14.2049 20.4156 14.109 20.2274C14 20.0135 14 19.7335 14 19.1734V16.3734Z" stroke="white" stroke-width="1.5" stroke-linecap="round" stroke-linejoin="round"/>
</svg>
