<svg width="22" height="22" viewBox="0 0 22 22" fill="none" xmlns="http://www.w3.org/2000/svg">
<path d="M6 6.77344V3.77344C6 2.11658 7.34315 0.773438 9 0.773438C10.6569 0.773438 12 2.11658 12 3.77344V6.74889M17 14.7734C17 16.4303 15.6569 17.7734 14 17.7734C12.3431 17.7734 11 16.4303 11 14.7734M3 17.7734C1.89543 17.7734 1 16.878 1 15.7734V8.77344C1 7.66887 1.89543 6.77344 3 6.77344H15C16.1046 6.77344 17 7.66887 17 8.77344M9.4 20.7734H18.6C19.4401 20.7734 19.8601 20.7734 20.181 20.6099C20.4632 20.4661 20.6927 20.2367 20.8365 19.9544C21 19.6336 21 19.2135 21 18.3734V14.1734C21 13.3334 21 12.9133 20.8365 12.5925C20.6927 12.3102 20.4632 12.0807 20.181 11.9369C19.8601 11.7734 19.4401 11.7734 18.6 11.7734H9.4C8.55992 11.7734 8.13988 11.7734 7.81901 11.9369C7.53677 12.0807 7.3073 12.3102 7.16349 12.5925C7 12.9133 7 13.3334 7 14.1734V18.3734C7 19.2135 7 19.6336 7.16349 19.9544C7.3073 20.2367 7.53677 20.4661 7.81901 20.6099C8.13988 20.7734 8.55992 20.7734 9.4 20.7734Z" stroke="white" stroke-width="1.5" stroke-linecap="round" stroke-linejoin="round"/>
</svg>
