<svg width="18" height="16" viewBox="0 0 18 16" fill="none" xmlns="http://www.w3.org/2000/svg">
<path d="M9.5 14.25C9.08579 14.25 8.75 14.5858 8.75 15C8.75 15.4142 9.08579 15.75 9.5 15.75H15.5C16.4665 15.75 17.25 14.9665 17.25 14V2C17.25 1.0335 16.4665 0.25 15.5 0.25H9.5C9.08579 0.25 8.75 0.585788 8.75 1C8.75 1.41421 9.08579 1.75 9.5 1.75L15.5 1.75C15.6381 1.75 15.75 1.86193 15.75 2L15.75 14C15.75 14.1381 15.6381 14.25 15.5 14.25H9.5Z" fill="#980E0E"/>
<path fill-rule="evenodd" clip-rule="evenodd" d="M12.0031 10.3652C12.6934 10.3652 13.2531 9.80557 13.2531 9.11522V6.8747C13.2531 6.18435 12.6934 5.6247 12.0031 5.6247L7.39048 5.6247C7.38396 5.55128 7.37713 5.47787 7.37 5.40448L7.31597 4.8486C7.23354 4.00049 6.33294 3.49258 5.56451 3.86084C3.93029 4.64403 2.45085 5.71578 1.19736 7.02454L1.09816 7.12811C0.633948 7.61278 0.633948 8.37712 1.09815 8.8618L1.19736 8.96537C2.45085 10.2741 3.93029 11.3459 5.56451 12.1291C6.33293 12.4973 7.23354 11.9894 7.31597 11.1413L7.37 10.5854C7.37713 10.512 7.38396 10.4386 7.39048 10.3652H12.0031ZM6.69511 8.86522C6.42874 8.86522 6.19326 9.00451 6.06008 9.21598C5.99523 9.31896 5.95464 9.43906 5.94656 9.56853C5.92842 9.85941 5.90524 10.15 5.87703 10.4403L5.86135 10.6017C4.8253 10.0677 3.86316 9.40283 2.99838 8.62391C2.77402 8.42183 2.55622 8.21208 2.34538 7.99496C3.36892 6.9409 4.55651 6.06069 5.86135 5.38824L5.87703 5.54959C5.90524 5.83987 5.92842 6.13051 5.94656 6.42139C5.97122 6.81671 6.29902 7.1247 6.69511 7.1247H11.7531V8.86522H6.69511Z" fill="#980E0E"/>
</svg>
