<svg width="24" height="25" viewBox="0 0 24 25" fill="none" xmlns="http://www.w3.org/2000/svg">
<path fill-rule="evenodd" clip-rule="evenodd" d="M12 3.85262L9.7872 6.14212C9.55168 6.38581 9.2273 6.52342 8.88839 6.52342H5.75V9.66181C5.75 10.0007 5.61239 10.3251 5.3687 10.5606L3.0792 12.7734L5.3687 14.9862C5.61239 15.2218 5.75 15.5461 5.75 15.885V19.0234H8.88839C9.22729 19.0234 9.55167 19.161 9.7872 19.4047L12 21.6942L14.2128 19.4047C14.4483 19.161 14.7727 19.0234 15.1116 19.0234H18.25V15.885C18.25 15.5461 18.3876 15.2217 18.6313 14.9862L20.9208 12.7734L18.6313 10.5606C18.3876 10.3251 18.25 10.0007 18.25 9.66182V6.52342H15.1116C14.7727 6.52342 14.4483 6.38581 14.2128 6.14212L12 3.85262ZM11.1012 2.62419C11.5926 2.11579 12.4074 2.11579 12.8988 2.62419L15.2177 5.02342H18.5C19.1904 5.02342 19.75 5.58307 19.75 6.27342V9.55576L22.1492 11.8746C22.6576 12.366 22.6576 13.1809 22.1492 13.6722L19.75 15.9911V19.2734C19.75 19.9638 19.1904 20.5234 18.5 20.5234H15.2177L12.8988 22.9227C12.4074 23.4311 11.5926 23.4311 11.1012 22.9227L8.78233 20.5234H5.5C4.80964 20.5234 4.25 19.9638 4.25 19.2734V15.9911L1.85077 13.6722C1.34237 13.1809 1.34237 12.366 1.85077 11.8746L4.25 9.55576V6.27342C4.25 5.58307 4.80965 5.02342 5.5 5.02342H8.78233L11.1012 2.62419Z" fill="white"/>
<path fill-rule="evenodd" clip-rule="evenodd" d="M7.25 12.7734C7.25 10.1501 9.37665 8.02342 12 8.02342C14.6234 8.02342 16.75 10.1501 16.75 12.7734C16.75 15.3968 14.6234 17.5234 12 17.5234C9.37665 17.5234 7.25 15.3968 7.25 12.7734ZM12 9.52342C10.2051 9.52342 8.75 10.9785 8.75 12.7734C8.75 14.5683 10.2051 16.0234 12 16.0234C13.7949 16.0234 15.25 14.5683 15.25 12.7734C15.25 10.9785 13.7949 9.52342 12 9.52342Z" fill="white"/>
</svg>
