<svg width="24" height="25" viewBox="0 0 24 25" fill="none" xmlns="http://www.w3.org/2000/svg">
<path d="M11 14.7734C7.13401 14.7734 4 17.9074 4 21.7734H12M15 7.77344C15 9.98258 13.2091 11.7734 11 11.7734C8.79086 11.7734 7 9.98258 7 7.77344C7 5.5643 8.79086 3.77344 11 3.77344C13.2091 3.77344 15 5.5643 15 7.77344ZM20.8726 15.9772C20.8044 15.9813 20.7357 15.9834 20.6667 15.9834C19.6422 15.9834 18.7077 15.5259 18 14.7734C17.2923 15.5259 16.3578 15.9834 15.3333 15.9834C15.2643 15.9834 15.1956 15.9813 15.1274 15.9772C15.0442 16.3587 15 16.7589 15 17.1714C15 19.3855 16.2748 21.2459 18 21.7734C19.7252 21.2459 21 19.3855 21 17.1714C21 16.7589 20.9558 16.3588 20.8726 15.9772Z" stroke="white" stroke-width="1.5" stroke-linecap="round" stroke-linejoin="round"/>
</svg>
