<svg width="24" height="25" viewBox="0 0 24 25" fill="none" xmlns="http://www.w3.org/2000/svg">
<path d="M13 20.7734V18.7734C13 16.012 10.7614 13.7734 8 13.7734C5.23858 13.7734 3 16.012 3 18.7734V20.7734H13ZM13 20.7734H21V19.7734C21 16.8279 18.7614 14.7734 16 14.7734C14.5867 14.7734 13.3103 15.3989 12.4009 16.4045M11 7.77344C11 9.43029 9.65685 10.7734 8 10.7734C6.34315 10.7734 5 9.43029 5 7.77344C5 6.11658 6.34315 4.77344 8 4.77344C9.65685 4.77344 11 6.11658 11 7.77344ZM18 9.77344C18 10.878 17.1046 11.7734 16 11.7734C14.8954 11.7734 14 10.878 14 9.77344C14 8.66887 14.8954 7.77344 16 7.77344C17.1046 7.77344 18 8.66887 18 9.77344Z" stroke="white" stroke-width="1.5" stroke-linecap="round" stroke-linejoin="round"/>
</svg>
