<?xml version="1.0" encoding="UTF-8"?>
<!DOCTYPE svg PUBLIC "-//W3C//DTD SVG 1.1//EN" "http://www.w3.org/Graphics/SVG/1.1/DTD/svg11.dtd">
<!-- Creator: CorelDRAW 2021 (64-Bit) -->
<svg xmlns="http://www.w3.org/2000/svg" xml:space="preserve" width="4.4173in" height="4.02193in" version="1.1" style="shape-rendering:geometricPrecision; text-rendering:geometricPrecision; image-rendering:optimizeQuality; fill-rule:evenodd; clip-rule:evenodd"
viewBox="0 0 4411.68 4016.82"
 xmlns:xlink="http://www.w3.org/1999/xlink"
 xmlns:xodm="http://www.corel.com/coreldraw/odm/2003">
 <defs>
  <style type="text/css">
   <![CDATA[
    .fil0 {fill:#333333}
   ]]>
  </style>
 </defs>
 <g id="Layer_x0020_1">
  <metadata id="CorelCorpID_0Corel-Layer"/>
  <g id="_2305719176880">
   <path class="fil0" d="M1089.18 2061.03c601.5,-57 1089.15,333.39 1089.15,871.95 0,538.56 -487.65,1021.34 -1089.15,1078.31 -601.53,56.99 -1089.18,-333.38 -1089.18,-871.95 0,-538.55 487.66,-1021.32 1089.18,-1078.31zm270.12 96.11c502.53,53.07 831.03,472.28 733.71,936.34 -97.24,464.06 -583.51,797.24 -1086.01,744.16 -502.54,-53.08 -831.05,-472.27 -733.74,-936.34 97.27,-464.06 583.51,-797.21 1086.04,-744.16z"/>
   <path class="fil0" d="M3322.53 2682.28c-601.53,57 -1089.17,-333.39 -1089.17,-871.95 0,-538.55 487.64,-1021.33 1089.17,-1078.31 601.5,-56.99 1089.16,333.39 1089.16,871.95 0,538.56 -487.66,1021.33 -1089.16,1078.31zm-270.14 -96.11c-502.54,-53.07 -831.03,-472.29 -733.75,-936.34 97.28,-464.06 583.54,-797.24 1086.05,-744.16 502.53,53.08 831.04,472.31 733.74,936.35 -97.28,464.06 -583.52,797.23 -1086.04,744.15z"/>
   <path class="fil0" d="M927.94 1388.06c510.19,11.34 899.42,360.04 1195.6,825.88 -284.32,-535.51 -696.19,-1004.09 -1284.63,-1130.16 -933.49,-200.05 -893.84,643.02 -319.89,643.02 225.83,0 408.92,-151.4 408.92,-338.14l0 -0.61z"/>
   <path class="fil0" d="M3483.75 3355.2c-500.21,-12.14 -848.72,-360.53 -1144.55,-825.83 282.33,531.76 666.02,1009.45 1251.32,1132.7 909.41,191.41 876.29,-645.57 302.16,-645.57 -225.83,0 -408.92,151.4 -408.92,338.15l0 0.55z"/>
   <path class="fil0" d="M3614.44 0.44c-382.45,-11.34 -562.08,199.12 -583.85,582.27 269.23,-105.9 459.25,-305.42 583.85,-582.27z"/>
  </g>
 </g>
</svg>
