<?xml version="1.0" encoding="UTF-8"?><svg id="Layer_1" xmlns="http://www.w3.org/2000/svg" viewBox="0 0 1080 1080"><path d="M350.736,492.391l29.284,125.401h7.366v2.155h-32.34v-2.155h6.648l-8.265-34.676h-23.895l-7.904,34.676h6.827v2.155h-17.607v-2.155c4.133,0,9.163-2.515,10.6-8.804l26.41-116.597h2.875ZM330.075,580.962h22.816l-11.677-49.046-11.139,49.046Z"/><path d="M435.531,582.398l19.763-88.212h25.152v1.797h-7.186v122.167h7.186v1.797h-32.338v-1.797h7.186v-113.364l-26.051,115.161h-2.874l-25.332-104.92v102.765h7.186v2.155h-17.427v-2.155c4.133,0,8.085-3.774,8.085-10.421v-104.202c0-3.054-2.335-6.827-8.085-6.827v-2.156h23.536l21.199,88.212Z"/><path d="M523.204,492.391l29.284,125.401h7.366v2.155h-32.34v-2.155h6.648l-8.265-34.676h-23.895l-7.904,34.676h6.827v2.155h-17.607v-2.155c4.133,0,9.163-2.515,10.6-8.804l26.41-116.597h2.875ZM502.543,580.962h22.816l-11.677-49.046-11.139,49.046Z"/><path d="M589.136,558.864v58.928h7.186v2.155h-32.338v-2.155h7.186v-121.45h-7.186v-2.156h30.541c19.402,0,32.338,12.936,32.338,28.746v7.186c0,13.115-8.803,24.254-22.996,27.667,14.193,3.414,22.996,14.553,22.996,27.669v22.816c0,3.414,1.438,6.109,3.414,6.109s3.414-2.695,3.414-6.109h2.156c0,7.365-6.109,13.474-13.475,13.474s-13.474-6.109-13.474-13.474v-22.816c0-14.553-4.491-26.59-14.372-26.59h-5.389ZM589.136,496.343v60.364h5.389c9.881,0,14.372-12.036,14.372-26.588v-7.186c0-14.912-4.491-26.59-14.372-26.59h-5.389Z"/><path d="M674.472,492.391l29.284,125.401h7.366v2.155h-32.34v-2.155h6.648l-8.265-34.676h-23.895l-7.904,34.676h6.827v2.155h-17.607v-2.155c4.133,0,9.163-2.515,10.6-8.804l26.41-116.597h2.875ZM653.811,580.962h22.816l-11.677-49.046-11.139,49.046Z"/><path d="M769.149,521.136h-2.156c0-12.936-8.444-24.793-18.504-24.793h-8.085v59.826h3.592c5.75,0,12.216-6.467,12.216-14.372h2.156v30.541h-2.156c0-7.906-6.467-14.372-12.216-14.372h-3.592v59.827h8.085c10.06,0,18.504-11.857,18.504-24.793h2.156v26.948h-53.897v-2.155h7.186v-121.45h-7.186v-2.156h53.897v26.949ZM733.756,486.461l5.929-28.205h19.942l-23.714,28.205h-2.156Z"/></svg>