<svg width="114" height="121" viewBox="0 0 114 121" fill="none" xmlns="http://www.w3.org/2000/svg">
<rect width="114" height="121" rx="57" fill="#FDD5E7"/>
<g clip-path="url(#clip0_458_17)">
<path fill-rule="evenodd" clip-rule="evenodd" d="M38.2696 61.8908C48.3589 60.9259 56.5386 67.5347 56.5386 76.6519C56.5386 85.7691 48.3589 93.942 38.2696 94.9064C28.1797 95.8712 20.0001 89.2627 20.0001 80.1453C20.0001 71.0283 28.1799 62.8556 38.2696 61.8908ZM42.8005 63.5178C51.2297 64.4162 56.7398 71.513 55.1074 79.369C53.4764 87.2249 45.3198 92.8653 36.8911 91.9667C28.4617 91.0681 22.9514 83.9717 24.5836 76.1156C26.2152 68.2596 34.3712 62.6198 42.8005 63.5178Z" fill="#8C033E"/>
<path fill-rule="evenodd" clip-rule="evenodd" d="M75.7309 72.4078C65.6411 73.3728 57.4616 66.7639 57.4616 57.6467C57.4616 48.5297 65.6411 40.3568 75.7309 39.3922C85.8203 38.4275 94.0001 45.0361 94.0001 54.1533C94.0001 63.2705 85.8203 71.4432 75.7309 72.4078ZM71.1997 70.7808C62.7703 69.8824 57.2603 62.7855 58.8921 54.9297C60.5238 47.0737 68.6801 41.4333 77.1091 42.3319C85.5383 43.2305 91.0486 50.3276 89.4165 58.1832C87.7848 66.0392 79.6288 71.6794 71.1997 70.7808Z" fill="#8C033E"/>
<path fill-rule="evenodd" clip-rule="evenodd" d="M35.565 50.4982C44.1227 50.6902 50.6515 56.5933 55.6195 64.4794C50.8505 55.4138 43.9419 47.4813 34.0716 45.3471C18.4136 41.9605 19.0787 56.2327 28.7059 56.2327C32.4939 56.2327 35.565 53.6697 35.565 50.5084V50.4981V50.4982Z" fill="#8C033E"/>
<path fill-rule="evenodd" clip-rule="evenodd" d="M78.4352 83.7996C70.0449 83.594 64.1991 77.6962 59.2369 69.8192C63.9726 78.8213 70.4085 86.908 80.2261 88.9945C95.4802 92.2349 94.9247 78.0658 85.2944 78.0658C81.5064 78.0658 78.4354 80.6288 78.4354 83.7903V83.7996H78.4352Z" fill="#8C033E"/>
<path fill-rule="evenodd" clip-rule="evenodd" d="M80.6273 27.0075C74.2123 26.8155 71.1992 30.3783 70.8341 36.8646C75.35 35.0718 78.5373 31.6942 80.6273 27.0075Z" fill="#8C033E"/>
</g>
<defs>
<clipPath id="clip0_458_17">
<rect width="74" height="68" fill="white" transform="translate(20 27)"/>
</clipPath>
</defs>
</svg>
