<svg width="459" height="164" viewBox="0 0 459 164" fill="none" xmlns="http://www.w3.org/2000/svg">
<path d="M39.886 34.1348L69.17 159.536H76.536V161.691H44.196V159.536H50.844L42.579 124.86H18.684L10.78 159.536H17.607V161.691H0V159.536C4.133 159.536 9.16301 157.021 10.6 150.732L37.01 34.1348H39.885H39.886ZM19.225 122.706H42.041L30.364 73.6598L19.225 122.706Z" fill="black"/>
<path d="M124.681 124.142L144.444 35.9297H169.596V37.7267H162.41V159.894H169.596V161.691H137.258V159.894H144.444V46.5297L118.393 161.691H115.519L90.187 56.7707V159.536H97.373V161.691H79.946V159.536C84.079 159.536 88.0311 155.762 88.0311 149.115V44.9127C88.0311 41.8587 85.696 38.0857 79.946 38.0857V35.9297H103.482L124.681 124.142Z" fill="black"/>
<path d="M212.354 34.1348L241.638 159.536H249.004V161.691H216.664V159.536H223.312L215.047 124.86H191.152L183.248 159.536H190.075V161.691H172.468V159.536C176.601 159.536 181.631 157.021 183.068 150.732L209.478 34.1348H212.354ZM191.693 122.706H214.509L202.832 73.6598L191.693 122.706Z" fill="black"/>
<path d="M278.286 100.608V159.536H285.472V161.691H253.134V159.536H260.32V38.0857H253.134V35.9297H283.675C303.077 35.9297 316.013 48.8657 316.013 64.6757V71.8617C316.013 84.9767 307.21 96.1157 293.017 99.5287C307.21 102.943 316.013 114.082 316.013 127.198V150.014C316.013 153.428 317.451 156.123 319.427 156.123C321.403 156.123 322.841 153.428 322.841 150.014H324.997C324.997 157.379 318.888 163.488 311.522 163.488C304.156 163.488 298.048 157.379 298.048 150.014V127.198C298.048 112.645 293.557 100.608 283.676 100.608H278.287H278.286ZM278.286 38.0867V98.4507H283.675C293.556 98.4507 298.047 86.4147 298.047 71.8627V64.6767C298.047 49.7647 293.556 38.0867 283.675 38.0867H278.286Z" fill="black"/>
<path d="M363.622 34.1348L392.906 159.536H400.272V161.691H367.932V159.536H374.58L366.315 124.86H342.42L334.516 159.536H341.343V161.691H323.736V159.536C327.869 159.536 332.899 157.021 334.336 150.732L360.746 34.1348H363.622ZM342.961 122.706H365.777L354.1 73.6598L342.961 122.706Z" fill="black"/>
<path d="M458.299 62.88H456.143C456.143 49.944 447.699 38.087 437.639 38.087H429.554V97.913H433.146C438.896 97.913 445.362 91.446 445.362 83.541H447.518V114.082H445.362C445.362 106.176 438.895 99.71 433.146 99.71H429.554V159.537H437.639C447.699 159.537 456.143 147.68 456.143 134.744H458.299V161.692H404.402V159.537H411.588V38.087H404.402V35.931H458.299V62.88ZM422.906 28.205L428.835 0H448.777L425.063 28.205H422.907H422.906Z" fill="black"/>
</svg>
