<svg width="239" height="88" viewBox="0 0 239 88" fill="none" xmlns="http://www.w3.org/2000/svg">
<path d="M0 86.4V85.44C3.072 85.44 4.896 84 5.376 81.792L18.816 18.24H20.352L35.136 85.44H38.976V86.4H23.424V85.44H27.264L23.232 66.72H9.504L5.568 85.44H9.216V86.4H0ZM16.224 35.232L9.696 65.76H23.04L16.224 35.232ZM41.4135 19.2H52.7415L65.0295 70.272L75.5895 19.2H87.1095V20.16H83.2695V85.44H87.1095V86.4H71.7495V85.44H75.5895V23.904L62.6295 86.4H61.0935L46.6935 26.688V85.44H50.5335V86.4H41.4135V85.44C44.4855 85.44 45.7335 84.192 45.7335 82.56V23.04C45.7335 21.408 44.4855 20.16 41.4135 20.16V19.2ZM89.4375 86.4V85.44C92.5095 85.44 94.3335 84 94.8135 81.792L108.254 18.24H109.79L124.574 85.44H128.414V86.4H112.862V85.44H116.702L112.67 66.72H98.9415L95.0055 85.44H98.6535V86.4H89.4375ZM105.662 35.232L99.1335 65.76H112.478L105.662 35.232ZM146.691 53.76H142.851V85.44H146.691V86.4H131.331V85.44H135.171V20.16H131.331V19.2H146.691C157.059 19.2 163.971 26.112 163.971 34.56V38.4C163.971 45.504 158.979 51.552 151.299 53.28C158.979 55.008 163.971 61.056 163.971 68.16V81.12C163.971 82.944 164.835 84.384 165.891 84.384C166.947 84.384 167.811 82.944 167.811 81.12H168.771C168.771 84.576 165.987 87.36 162.531 87.36C159.075 87.36 156.291 84.576 156.291 81.12V68.16C156.291 60.192 151.971 53.76 146.691 53.76ZM146.691 20.16H142.851V52.8H146.691C151.971 52.8 156.291 46.368 156.291 38.4V34.56C156.291 26.592 151.971 20.16 146.691 20.16ZM168.844 86.4V85.44C171.916 85.44 173.74 84 174.22 81.792L187.66 18.24H189.196L203.98 85.44H207.82V86.4H192.268V85.44H196.108L192.076 66.72H178.348L174.412 85.44H178.06V86.4H168.844ZM185.068 35.232L178.54 65.76H191.884L185.068 35.232ZM238.577 19.2V32.64H237.617C237.617 25.728 234.833 20.16 231.377 20.16H222.257V52.32H228.017C230.129 52.32 231.857 48.864 231.857 44.64H232.817V60.96H231.857C231.857 56.736 230.129 53.28 228.017 53.28H222.257V85.44H231.377C234.833 85.44 237.617 79.872 237.617 72.96H238.577V86.4H210.737V85.44H214.577V20.16H210.737V19.2H238.577ZM221.585 15.072H220.625L223.793 0H232.529L221.585 15.072Z" fill="#8C033E"/>
</svg>
