<svg width="225" height="88" viewBox="0 0 225 88" fill="none" xmlns="http://www.w3.org/2000/svg">
<path d="M-14 86.4V85.44C-10.928 85.44 -9.104 84 -8.624 81.792L4.816 18.24H6.352L21.136 85.44H24.976V86.4H9.424V85.44H13.264L9.232 66.72H-4.496L-8.432 85.44H-4.784V86.4H-14ZM2.224 35.232L-4.304 65.76H9.04L2.224 35.232ZM27.4135 19.2H38.7415L51.0295 70.272L61.5895 19.2H73.1095V20.16H69.2695V85.44H73.1095V86.4H57.7495V85.44H61.5895V23.904L48.6295 86.4H47.0935L32.6935 26.688V85.44H36.5335V86.4H27.4135V85.44C30.4855 85.44 31.7335 84.192 31.7335 82.56V23.04C31.7335 21.408 30.4855 20.16 27.4135 20.16V19.2ZM75.4375 86.4V85.44C78.5095 85.44 80.3335 84 80.8135 81.792L94.254 18.24H95.79L110.574 85.44H114.414V86.4H98.862V85.44H102.702L98.67 66.72H84.9415L81.0055 85.44H84.6535V86.4H75.4375ZM91.662 35.232L85.1335 65.76H98.478L91.662 35.232ZM132.691 53.76H128.851V85.44H132.691V86.4H117.331V85.44H121.171V20.16H117.331V19.2H132.691C143.059 19.2 149.971 26.112 149.971 34.56V38.4C149.971 45.504 144.979 51.552 137.299 53.28C144.979 55.008 149.971 61.056 149.971 68.16V81.12C149.971 82.944 150.835 84.384 151.891 84.384C152.947 84.384 153.811 82.944 153.811 81.12H154.771C154.771 84.576 151.987 87.36 148.531 87.36C145.075 87.36 142.291 84.576 142.291 81.12V68.16C142.291 60.192 137.971 53.76 132.691 53.76ZM132.691 20.16H128.851V52.8H132.691C137.971 52.8 142.291 46.368 142.291 38.4V34.56C142.291 26.592 137.971 20.16 132.691 20.16ZM154.844 86.4V85.44C157.916 85.44 159.74 84 160.22 81.792L173.66 18.24H175.196L189.98 85.44H193.82V86.4H178.268V85.44H182.108L178.076 66.72H164.348L160.412 85.44H164.06V86.4H154.844ZM171.068 35.232L164.54 65.76H177.884L171.068 35.232ZM224.577 19.2V32.64H223.617C223.617 25.728 220.833 20.16 217.377 20.16H208.257V52.32H214.017C216.129 52.32 217.857 48.864 217.857 44.64H218.817V60.96H217.857C217.857 56.736 216.129 53.28 214.017 53.28H208.257V85.44H217.377C220.833 85.44 223.617 79.872 223.617 72.96H224.577V86.4H196.737V85.44H200.577V20.16H196.737V19.2H224.577ZM207.585 15.072H206.625L209.793 0H218.529L207.585 15.072Z" fill="#8C033E"/>
</svg>
