<svg width="243" height="198" viewBox="0 0 243 198" fill="none" xmlns="http://www.w3.org/2000/svg">
<g clip-path="url(#clip0_457_4)">
<path fill-rule="evenodd" clip-rule="evenodd" d="M93.6637 50.7969C108.389 49.392 120.327 59.0137 120.327 72.2873C120.327 85.5608 108.389 97.4596 93.6637 98.8637C78.938 100.268 67.0001 90.6471 67.0001 77.3733C67.0001 64.1 78.9382 52.2015 93.6637 50.7969ZM100.276 53.1656C112.578 54.4736 120.62 64.8056 118.238 76.243C115.857 87.6804 103.953 95.8921 91.6519 94.5839C79.3495 93.2756 71.3074 82.9441 73.6896 71.5065C76.0708 60.0691 87.9742 51.8582 100.276 53.1656Z" fill="#8C033E"/>
<path fill-rule="evenodd" clip-rule="evenodd" d="M148.337 66.1084C133.611 67.5133 121.674 57.8916 121.674 44.618C121.674 31.3447 133.611 19.446 148.337 18.0416C163.062 16.637 175 26.2585 175 39.532C175 52.8056 163.062 64.7041 148.337 66.1084ZM141.724 63.7397C129.422 62.4317 121.38 52.0994 123.761 40.6623C126.143 29.2249 138.047 21.0132 150.348 22.3215C162.651 23.6297 170.693 33.9622 168.311 45.3991C165.929 56.8365 154.026 65.0479 141.724 63.7397Z" fill="#8C033E"/>
<path fill-rule="evenodd" clip-rule="evenodd" d="M89.7165 34.2106C102.206 34.4901 111.735 43.0843 118.985 54.5656C112.025 41.3672 101.942 29.8184 87.537 26.7112C64.6847 21.7807 65.6554 42.5593 79.7059 42.5593C85.2343 42.5593 89.7165 38.8279 89.7165 34.2254V34.2104V34.2106Z" fill="#8C033E"/>
<path fill-rule="evenodd" clip-rule="evenodd" d="M152.284 82.6935C140.038 82.3943 131.507 73.8077 124.265 62.3398C131.176 75.4457 140.569 87.219 154.898 90.2567C177.16 94.9743 176.35 74.3458 162.295 74.3458C156.766 74.3458 152.284 78.0772 152.284 82.6799V82.6935H152.284Z" fill="#8C033E"/>
<path fill-rule="evenodd" clip-rule="evenodd" d="M155.483 0.010846C146.121 -0.268644 141.723 4.91843 141.19 14.3617C147.781 11.7516 152.433 6.83419 155.483 0.010846Z" fill="#8C033E"/>
</g>
<path d="M0.424 182V181.04C3.496 181.04 5.32 179.6 5.8 177.392L19.24 113.84H20.776L35.56 181.04H39.4V182H23.848V181.04H27.688L23.656 162.32H9.928L5.992 181.04H9.64V182H0.424ZM16.648 130.832L10.12 161.36H23.464L16.648 130.832ZM41.8375 114.8H53.1655L65.4535 165.872L76.0135 114.8H87.5335V115.76H83.6935V181.04H87.5335V182H72.1735V181.04H76.0135V119.504L63.0535 182H61.5175L47.1175 122.288V181.04H50.9575V182H41.8375V181.04C44.9095 181.04 46.1575 179.792 46.1575 178.16V118.64C46.1575 117.008 44.9095 115.76 41.8375 115.76V114.8ZM89.8615 182V181.04C92.9335 181.04 94.7575 179.6 95.2375 177.392L108.678 113.84H110.214L124.998 181.04H128.838V182H113.286V181.04H117.126L113.094 162.32H99.3655L95.4295 181.04H99.0775V182H89.8615ZM106.086 130.832L99.5575 161.36H112.902L106.086 130.832ZM147.115 149.36H143.275V181.04H147.115V182H131.755V181.04H135.595V115.76H131.755V114.8H147.115C157.483 114.8 164.395 121.712 164.395 130.16V134C164.395 141.104 159.403 147.152 151.723 148.88C159.403 150.608 164.395 156.656 164.395 163.76V176.72C164.395 178.544 165.259 179.984 166.315 179.984C167.371 179.984 168.235 178.544 168.235 176.72H169.195C169.195 180.176 166.411 182.96 162.955 182.96C159.499 182.96 156.715 180.176 156.715 176.72V163.76C156.715 155.792 152.395 149.36 147.115 149.36ZM147.115 115.76H143.275V148.4H147.115C152.395 148.4 156.715 141.968 156.715 134V130.16C156.715 122.192 152.395 115.76 147.115 115.76ZM169.268 182V181.04C172.34 181.04 174.164 179.6 174.644 177.392L188.084 113.84H189.62L204.404 181.04H208.244V182H192.692V181.04H196.532L192.5 162.32H178.772L174.836 181.04H178.484V182H169.268ZM185.492 130.832L178.964 161.36H192.308L185.492 130.832ZM239.001 114.8V128.24H238.041C238.041 121.328 235.257 115.76 231.801 115.76H222.681V147.92H228.441C230.553 147.92 232.281 144.464 232.281 140.24H233.241V156.56H232.281C232.281 152.336 230.553 148.88 228.441 148.88H222.681V181.04H231.801C235.257 181.04 238.041 175.472 238.041 168.56H239.001V182H211.161V181.04H215.001V115.76H211.161V114.8H239.001ZM222.009 110.672H221.049L224.217 95.6H232.953L222.009 110.672Z" fill="#8C033E"/>
<defs>
<clipPath id="clip0_457_4">
<rect width="108" height="99" fill="white" transform="translate(67)"/>
</clipPath>
</defs>
</svg>
