<svg width="3281" height="2619" viewBox="0 0 3281 2619" fill="none" xmlns="http://www.w3.org/2000/svg">
<path d="M604.5 17.9994C80 -141.001 0 831.5 0 1079C34 1407 103 1769 333 1834C563 1899 810.5 2488.5 1135 2547.5C1459.5 2606.5 1689.5 2453 1901.5 2217C2113.5 1981 2744.5 2075.5 2904 1834C3063.5 1592.5 2774 1191.5 2573.5 1079C2373 966.499 2090 631 2055 247.999C2020 -135.001 1129 176.999 604.5 17.9994Z" fill="#FBE3E3" fill-opacity="0.4"/>
<rect x="272" y="390" width="1132" height="2228" rx="92" fill="#D9C6AB"/>
<rect x="306" y="424" width="1065" height="2096" rx="92" fill="white"/>
<rect x="946" y="1346" width="1545" height="901" rx="88" fill="#E6E6E6" fill-opacity="0.5"/>
<rect x="1016" y="1253" width="1545" height="901" rx="88" fill="url(#paint0_linear_667_2)"/>
<rect x="1111" y="1410" width="349" height="199" rx="37" stroke="white" stroke-width="6"/>
<rect x="1108" y="1705" width="311" height="111" rx="15" fill="white"/>
<rect x="1458" y="1705" width="311" height="111" rx="15" fill="white"/>
<rect x="1808" y="1705" width="311" height="111" rx="15" fill="white"/>
<rect x="2158" y="1705" width="311" height="111" rx="15" fill="white"/>
<rect x="2158" y="1872" width="311" height="111" rx="15" fill="white"/>
<path fill-rule="evenodd" clip-rule="evenodd" d="M2441.6 1483.11C2456.04 1468.8 2464.99 1448.94 2464.99 1427C2464.99 1405.31 2456.25 1385.66 2442.1 1371.39L2444.93 1368.56C2459.8 1383.56 2468.99 1404.21 2468.99 1427C2468.99 1450.05 2459.59 1470.9 2444.43 1485.94L2441.6 1483.11ZM2434.53 1476.04L2428.87 1470.38C2440.06 1459.32 2446.99 1443.97 2446.99 1427C2446.99 1410.28 2440.26 1395.14 2429.37 1384.12L2435.03 1378.46C2447.37 1390.93 2454.99 1408.07 2454.99 1427C2454.99 1446.18 2447.16 1463.53 2434.53 1476.04ZM2421.09 1462.6L2415.44 1456.95C2423.18 1449.33 2427.99 1438.73 2427.99 1427C2427.99 1415.53 2423.39 1405.13 2415.94 1397.55L2421.59 1391.9C2430.49 1400.92 2435.99 1413.32 2435.99 1427C2435.99 1440.93 2430.29 1453.54 2421.09 1462.6ZM2408.16 1405.33C2413.62 1410.92 2416.99 1418.57 2416.99 1427C2416.99 1435.69 2413.41 1443.54 2407.66 1449.17L2402 1443.51C2406.31 1439.33 2408.99 1433.48 2408.99 1427C2408.99 1420.78 2406.52 1415.13 2402.5 1410.99L2408.16 1405.33Z" fill="white"/>
<circle cx="1907.7" cy="813.695" r="215" transform="rotate(30 1907.7 813.695)" fill="#FCC659"/>
<circle cx="1907.69" cy="813.695" r="177" transform="rotate(30 1907.69 813.695)" fill="#F59A51"/>
<path d="M1934.77 868.808C1931.03 875.271 1925.9 880.408 1919.37 884.219C1912.96 888.104 1905.52 890.184 1897.04 890.459C1888.69 890.808 1880.07 888.931 1871.17 884.827L1862.1 900.532L1849.42 893.213L1858.49 877.508C1846.94 869.288 1839.26 859.77 1835.45 848.953C1831.64 838.136 1832.79 827.428 1838.91 816.829L1862.71 830.566C1860.19 835.833 1859.39 840.972 1860.31 845.984C1861.3 850.867 1864.2 855.3 1869.01 859.282L1893.64 816.627C1886.2 809.4 1880.38 803.112 1876.19 797.762C1872.07 792.282 1869.48 785.96 1868.41 778.797C1867.48 771.708 1869.47 763.898 1874.4 755.367C1880.59 744.638 1889.48 737.961 1901.05 735.335C1912.69 732.58 1924.96 734.149 1937.86 740.042L1946.92 724.338L1959.6 731.657L1950.53 747.362C1961.38 755.002 1968.46 763.913 1971.76 774.096C1975.28 784.225 1974.39 794.916 1969.11 806.17L1945.32 792.433C1947.24 788.201 1947.73 783.745 1946.79 779.067C1945.93 774.259 1943.55 769.959 1939.67 766.169L1915.5 808.048C1923.01 815.146 1928.83 821.434 1932.95 826.914C1937.14 832.264 1939.7 838.484 1940.64 845.572C1941.65 852.532 1939.69 860.277 1934.77 868.808ZM1897.69 767.266C1894.63 772.565 1893.81 777.602 1895.21 782.377C1896.75 787.226 1899.92 792.245 1904.72 797.433L1927.33 758.268C1921.37 755.686 1915.73 755.1 1910.41 756.509C1905.22 757.993 1900.98 761.578 1897.69 767.266ZM1881.69 866.602C1887.93 869 1893.73 869.328 1899.07 867.585C1904.48 865.714 1908.68 862.193 1911.66 857.022C1914.65 851.852 1915.34 846.907 1913.73 842.186C1912.33 837.412 1909.22 832.43 1904.41 827.243L1881.69 866.602Z" fill="#FCC659"/>
<path d="M1903.53 621.917L1905.37 627.611C1909.27 639.63 1915.57 650.73 1923.9 660.232L1929.03 666.084L1924.1 667.312C1910.28 670.755 1897.74 678.059 1887.92 688.37L1884.86 691.584L1883.87 688.202C1879.75 674.137 1872.37 661.244 1862.33 650.574L1859.36 647.417C1876.04 643.025 1891.4 634.192 1903.53 621.917Z" fill="#FFE4AC"/>
<path d="M1873.81 962.039C1877.1 972.193 1882.43 981.57 1889.46 989.599L1890.22 990.468L1889.82 990.568C1879.12 993.235 1869.4 998.894 1861.79 1006.88C1858.73 996.398 1853.22 986.787 1845.74 978.832L1845.38 978.452C1856.12 975.625 1866 969.94 1873.81 962.039Z" fill="#FFE4AC"/>
<circle cx="1493.2" cy="2217.2" r="215" transform="rotate(-30 1493.2 2217.2)" fill="#FCC659"/>
<circle cx="1493.19" cy="2217.2" r="177" transform="rotate(-30 1493.19 2217.2)" fill="#F59A51"/>
<path d="M1554.46 2221.31C1558.19 2227.77 1560.07 2234.78 1560.11 2242.35C1560.27 2249.84 1558.35 2257.32 1554.35 2264.8C1550.47 2272.21 1544.54 2278.74 1536.53 2284.4L1545.6 2300.1L1532.92 2307.42L1523.86 2291.71C1510.96 2297.61 1498.88 2299.5 1487.61 2297.39C1476.33 2295.28 1467.64 2288.93 1461.52 2278.33L1485.31 2264.59C1488.61 2269.41 1492.66 2272.67 1497.46 2274.38C1502.19 2275.96 1507.48 2275.66 1513.33 2273.49L1488.71 2230.83C1478.73 2233.67 1470.37 2235.56 1463.64 2236.52C1456.84 2237.34 1450.07 2236.43 1443.33 2233.77C1436.72 2231.03 1430.96 2225.4 1426.03 2216.87C1419.84 2206.14 1418.5 2195.11 1422.01 2183.77C1425.45 2172.31 1432.94 2162.47 1444.49 2154.25L1435.42 2138.54L1448.1 2131.23L1457.17 2146.93C1469.21 2141.36 1480.46 2139.68 1490.94 2141.91C1501.46 2143.93 1510.28 2150.04 1517.39 2160.25L1493.59 2173.98C1490.89 2170.2 1487.28 2167.55 1482.75 2166.02C1478.16 2164.37 1473.25 2164.27 1468.03 2165.74L1492.2 2207.62C1502.11 2204.65 1510.47 2202.76 1517.27 2201.93C1524 2200.98 1530.67 2201.87 1537.27 2204.6C1543.81 2207.21 1549.53 2212.78 1554.46 2221.31ZM1447.99 2202.64C1451.05 2207.94 1454.99 2211.18 1459.83 2212.35C1464.8 2213.44 1470.73 2213.21 1477.62 2211.64L1455.01 2172.47C1449.79 2176.35 1446.47 2180.94 1445.03 2186.25C1443.72 2191.49 1444.7 2196.95 1447.99 2202.64ZM1526.01 2266.17C1531.21 2261.96 1534.39 2257.11 1535.55 2251.61C1536.64 2245.99 1535.69 2240.59 1532.7 2235.42C1529.72 2230.25 1525.78 2227.18 1520.89 2226.22C1516.05 2225.04 1510.18 2225.24 1503.29 2226.81L1526.01 2266.17Z" fill="#FCC659"/>
<path d="M1325.03 2124.92L1330.88 2126.17C1343.24 2128.8 1356 2128.89 1368.39 2126.43L1376.03 2124.92L1374.63 2129.8C1370.7 2143.48 1370.75 2158 1374.77 2171.66L1376.03 2175.92L1372.6 2175.08C1358.36 2171.61 1343.51 2171.56 1329.24 2174.92L1325.03 2175.92C1329.56 2159.27 1329.59 2141.56 1325.03 2124.92Z" fill="#FFE4AC"/>
<path d="M1604.72 2320.71C1615.16 2322.94 1625.95 2323.02 1636.42 2320.94L1637.55 2320.71L1637.44 2321.11C1634.39 2331.71 1634.43 2342.96 1637.55 2353.54C1626.94 2350.95 1615.86 2350.91 1605.23 2353.42L1604.72 2353.54C1607.64 2342.83 1607.66 2331.42 1604.72 2320.71Z" fill="#FFE4AC"/>
<circle cx="2920.7" cy="1887.7" r="215" transform="rotate(15 2920.7 1887.7)" fill="#FCC659"/>
<circle cx="2920.7" cy="1887.7" r="177" transform="rotate(15 2920.7 1887.7)" fill="#F59A51"/>
<path d="M2867.04 1703.54L2870.3 1708.56C2877.17 1719.16 2886.13 1728.25 2896.63 1735.27L2903.1 1739.6L2898.66 1742.06C2886.21 1748.96 2875.98 1759.27 2869.16 1771.77L2867.04 1775.66L2865.21 1772.65C2857.59 1760.13 2847.13 1749.59 2834.66 1741.88L2830.98 1739.6C2845.96 1731.04 2858.5 1718.53 2867.04 1703.54Z" fill="#FFE4AC"/>
<path d="M2926.37 2039.76C2932.17 2048.72 2939.74 2056.4 2948.62 2062.33L2949.58 2062.97L2949.22 2063.17C2939.57 2068.52 2931.64 2076.5 2926.37 2086.19C2920.69 2076.85 2912.89 2068.99 2903.6 2063.25L2903.15 2062.97C2912.8 2057.46 2920.87 2049.41 2926.37 2039.76Z" fill="#FFE4AC"/>
<path d="M2860.28 1989.51L2860.28 1921.12L2839.51 1921.12L2839.51 1904.09L2860.28 1904.09L2860.28 1882.27L2839.51 1882.27L2839.51 1865.24L2860.28 1865.24L2860.28 1799.51L2887.97 1799.51L2913.27 1865.24L2944.7 1865.24L2944.7 1799.51L2965.74 1799.51L2965.74 1865.24L2986.51 1865.24L2986.51 1882.27L2965.74 1882.27L2965.74 1904.09L2986.51 1904.09L2986.51 1921.12L2965.74 1921.12L2965.74 1989.51L2937.77 1989.51L2912.47 1921.12L2881.05 1921.12L2881.05 1989.51L2860.28 1989.51ZM2881.05 1904.09L2906.08 1904.09L2898.09 1882.27L2880.52 1882.27L2881.05 1904.09ZM2944.7 1951.99L2945.76 1951.99L2944.96 1921.12L2933.78 1921.12L2944.7 1951.99ZM2880.52 1865.24L2891.7 1865.24L2880.52 1832.24L2879.45 1832.24L2880.52 1865.24ZM2927.39 1904.09L2945.23 1904.09L2944.7 1882.27L2919.4 1882.27L2927.39 1904.09Z" fill="#FCC659"/>
<rect x="744" y="408" width="189" height="59" rx="17" fill="#D9C6AB"/>
<path fill-rule="evenodd" clip-rule="evenodd" d="M944 417H921V440H932.782C932.734 439.519 932.709 439.03 932.709 438.536C932.709 431.645 937.54 425.883 944 424.451V417Z" fill="#D9C6AB"/>
<path fill-rule="evenodd" clip-rule="evenodd" d="M733 417H756V440H744.218C744.266 439.519 744.291 439.03 744.291 438.536C744.291 431.645 739.46 425.883 733 424.451V417Z" fill="#D9C6AB"/>
<path fill-rule="evenodd" clip-rule="evenodd" d="M1723.22 1225.57C1613.28 1044.76 1414.4 924 1187.32 924C921.475 924 694.286 1089.52 603.191 1323.13C717.936 1177.07 896.175 1083.25 1096.33 1083.25C1275.83 1083.25 1437.7 1158.7 1551.96 1279.63L1487.47 1299.98L1717.23 1427L1792.15 1203.82L1723.22 1225.57Z" fill="#8C033E"/>
<defs>
<linearGradient id="paint0_linear_667_2" x1="2297.5" y1="1187" x2="1112" y2="2187.5" gradientUnits="userSpaceOnUse">
<stop offset="0.0274638" stop-color="#DF7DA6"/>
<stop offset="1" stop-color="#8C033E"/>
</linearGradient>
</defs>
</svg>
