<svg width="562" height="39" viewBox="0 0 562 39" fill="none" xmlns="http://www.w3.org/2000/svg">
<path d="M256.727 39.0004V28.7731C256.727 25.667 257.277 22.3716 258.375 18.8867C259.511 15.364 261.14 11.9738 263.261 8.71627C265.42 5.42081 268.015 2.56096 271.045 0.136719L278.318 6.04581C275.932 9.4549 273.849 13.0155 272.068 16.7276C270.326 20.4019 269.455 24.3413 269.455 28.5458V39.0004H256.727ZM285.818 39.0004V28.7731C285.818 25.667 286.367 22.3716 287.466 18.8867C288.602 15.364 290.231 11.9738 292.352 8.71627C294.511 5.42081 297.106 2.56096 300.136 0.136719L307.409 6.04581C305.023 9.4549 302.939 13.0155 301.159 16.7276C299.417 20.4019 298.545 24.3413 298.545 28.5458V39.0004H285.818Z" fill="#D9D9D9"/>
<rect x="319" y="20" width="243" height="5" fill="#D9D9D9"/>
<rect y="20" width="243" height="5" fill="#D9D9D9"/>
</svg>
