<svg width="109" height="109" viewBox="0 0 109 109" fill="none" xmlns="http://www.w3.org/2000/svg">
<path fill-rule="evenodd" clip-rule="evenodd" d="M100.254 1.55452C102.218 -0.408798 105.401 -0.408798 107.364 1.55452C109.327 3.51778 109.327 6.70088 107.364 8.6642L61.5693 54.459L107.364 100.254C109.327 102.217 109.327 105.4 107.364 107.364C105.401 109.327 102.218 109.327 100.254 107.364L54.4595 61.5687L8.66469 107.364C6.70143 109.327 3.51833 109.327 1.55501 107.364C-0.40831 105.4 -0.40831 102.217 1.55501 100.254L47.3499 54.459L1.55507 8.6642C-0.408188 6.70088 -0.408188 3.51778 1.55507 1.55452C3.51839 -0.408798 6.70149 -0.408798 8.66481 1.55452L54.4596 47.3494L100.254 1.55452Z" fill="#880000"/>
</svg>
