<svg width="20" height="20" viewBox="0 0 20 20" fill="none" xmlns="http://www.w3.org/2000/svg">
<path d="M11.5 13.5C11.2164 12.3589 9.981 11.5 8.5 11.5C7.019 11.5 5.78364 12.3589 5.5 13.5M19 3V5M19 9V11M19 15V17M4.2 19H12.8C13.9201 19 14.4802 19 14.908 18.782C15.2843 18.5903 15.5903 18.2843 15.782 17.908C16 17.4802 16 16.9201 16 15.8V4.2C16 3.0799 16 2.51984 15.782 2.09202C15.5903 1.71569 15.2843 1.40973 14.908 1.21799C14.4802 1 13.9201 1 12.8 1H4.2C3.0799 1 2.51984 1 2.09202 1.21799C1.71569 1.40973 1.40973 1.71569 1.21799 2.09202C1 2.51984 1 3.07989 1 4.2V15.8C1 16.9201 1 17.4802 1.21799 17.908C1.40973 18.2843 1.71569 18.5903 2.09202 18.782C2.51984 19 3.07989 19 4.2 19ZM9.5 7.5C9.5 8.05228 9.05228 8.5 8.5 8.5C7.94772 8.5 7.5 8.05228 7.5 7.5C7.5 6.94772 7.94772 6.5 8.5 6.5C9.05228 6.5 9.5 6.94772 9.5 7.5Z" stroke="#828282" stroke-width="1.5" stroke-linecap="round" stroke-linejoin="round"/>
</svg>
