<svg width="16" height="20" viewBox="0 0 16 20" fill="none" xmlns="http://www.w3.org/2000/svg">
<path fill-rule="evenodd" clip-rule="evenodd" d="M3.25002 5.25073V5.13086C3.25002 2.96311 4.71763 1.07037 6.81707 0.530518C7.59308 0.330973 8.40695 0.330973 9.18296 0.530518C11.2824 1.07037 12.75 2.96312 12.75 5.13086V5.25073H14.2511C14.8224 5.25073 15.3073 5.66972 15.3901 6.23496L15.6088 7.72741C16.0393 10.6659 16.0393 13.6514 15.6088 16.5898C15.4008 18.0089 14.2565 19.1059 12.83 19.2539L12.2011 19.3191C9.40788 19.6088 6.59215 19.6088 3.79888 19.3191L3.17001 19.2539C1.74347 19.1059 0.599184 18.0089 0.391267 16.5898C-0.0392766 13.6514 -0.0392763 10.6659 0.391267 7.72741L0.609941 6.23496C0.692761 5.66971 1.17761 5.25073 1.74889 5.25073H3.25002ZM7.19063 1.98326C7.72158 1.84673 8.27845 1.84673 8.8094 1.98326C10.2459 2.35263 11.25 3.64767 11.25 5.13086V5.25073H4.75002V5.13086C4.75002 3.64766 5.75417 2.35263 7.19063 1.98326ZM3.25002 6.75073V9.00073C3.25002 9.41494 3.5858 9.75073 4.00002 9.75073C4.41423 9.75073 4.75002 9.41494 4.75002 9.00073V6.75073H11.25V9.00073C11.25 9.41494 11.5858 9.75073 12 9.75073C12.4142 9.75073 12.75 9.41494 12.75 9.00073V6.75073H13.9496L14.1246 7.94487C14.534 10.7391 14.534 13.5781 14.1246 16.3724C14.0162 17.1125 13.4193 17.6847 12.6753 17.7619L12.0464 17.8271C9.35602 18.1061 6.644 18.1061 3.95361 17.8271L3.32474 17.7619C2.5807 17.6847 1.98386 17.1125 1.87542 16.3724C1.46601 13.5781 1.46601 10.7391 1.87542 7.94487L2.05039 6.75073H3.25002Z" fill="black"/>
</svg>
