<svg width="40" height="40" viewBox="0 0 40 40" fill="none" xmlns="http://www.w3.org/2000/svg">
<rect width="40" height="40" rx="20" fill="#E6FFE6"/>
<path d="M28.21 15.82L20.51 20.28C20.2 20.46 19.81 20.46 19.49 20.28L11.79 15.82C11.24 15.5 11.1 14.75 11.52 14.28C11.81 13.95 12.14 13.68 12.49 13.49L17.91 10.49C19.07 9.84 20.95 9.84 22.11 10.49L27.53 13.49C27.88 13.68 28.21 13.96 28.5 14.28C28.9 14.75 28.76 15.5 28.21 15.82Z" fill="#008000"/>
<path d="M19.43 22.14V28.96C19.43 29.72 18.66 30.22 17.98 29.89C15.92 28.88 12.45 26.99 12.45 26.99C11.23 26.3 10.23 24.56 10.23 23.13V17.97C10.23 17.18 11.06 16.68 11.74 17.07L18.93 21.24C19.23 21.43 19.43 21.77 19.43 22.14Z" fill="#008000"/>
<path d="M20.57 22.14V28.96C20.57 29.72 21.34 30.22 22.02 29.89C24.08 28.88 27.55 26.99 27.55 26.99C28.77 26.3 29.77 24.56 29.77 23.13V17.97C29.77 17.18 28.94 16.68 28.26 17.07L21.07 21.24C20.77 21.43 20.57 21.77 20.57 22.14Z" fill="#008000"/>
</svg>
