<svg width="40" height="40" viewBox="0 0 40 40" fill="none" xmlns="http://www.w3.org/2000/svg">
<rect width="40" height="40" rx="20" fill="#F9F9CC"/>
<path d="M20.8649 10.9962C20.4796 10.3321 19.5204 10.3321 19.1351 10.9962L16.421 15.6735C16.2306 16.0016 15.9016 16.2255 15.5265 16.2822L10.4402 17.0504C9.58593 17.1794 9.28627 18.258 9.95158 18.8092L13.7407 21.9484C14.0914 22.239 14.2563 22.6974 14.1711 23.1448L13.18 28.35C13.0233 29.1728 13.8871 29.8121 14.6282 29.4219L19.4176 26.9C19.7821 26.7081 20.2178 26.7081 20.5824 26.9L25.3718 29.4219C26.1129 29.8121 26.9767 29.1728 26.82 28.35L25.8289 23.1448C25.7437 22.6974 25.9086 22.239 26.2593 21.9484L30.0484 18.8092C30.7137 18.258 30.4141 17.1794 29.5598 17.0504L24.4735 16.2822C24.0984 16.2255 23.7694 16.0016 23.579 15.6735L20.8649 10.9962Z" fill="#D9D104"/>
</svg>
